<?xml version="1.0" encoding="UTF-8" standalone="no"?>
<!-- Generator: Adobe Illustrator 24.0.2, SVG Export Plug-In . SVG Version: 6.00 Build 0)  -->

<svg
   xmlns:dc="http://purl.org/dc/elements/1.1/"
   xmlns:cc="http://creativecommons.org/ns#"
   xmlns:rdf="http://www.w3.org/1999/02/22-rdf-syntax-ns#"
   xmlns:svg="http://www.w3.org/2000/svg"
   xmlns="http://www.w3.org/2000/svg"
   xmlns:sodipodi="http://sodipodi.sourceforge.net/DTD/sodipodi-0.dtd"
   xmlns:inkscape="http://www.inkscape.org/namespaces/inkscape"
   version="1.1"
   x="0px"
   y="0px"
   viewBox="0 0 33.978001 29.999694"
   xml:space="preserve"
   id="svg301"
   sodipodi:docname="cebelica.svg"
   width="33.978001"
   height="29.999695"
   inkscape:version="0.92.4 (5da689c313, 2019-01-14)"><metadata
   id="metadata307"><rdf:RDF><cc:Work
       rdf:about=""><dc:format>image/svg+xml</dc:format><dc:type
         rdf:resource="http://purl.org/dc/dcmitype/StillImage" /><dc:title></dc:title></cc:Work></rdf:RDF></metadata><defs
   id="defs305" /><sodipodi:namedview
   pagecolor="#ffffff"
   bordercolor="#666666"
   borderopacity="1"
   objecttolerance="10"
   gridtolerance="10"
   guidetolerance="10"
   inkscape:pageopacity="0"
   inkscape:pageshadow="2"
   inkscape:window-width="1920"
   inkscape:window-height="1017"
   id="namedview303"
   showgrid="false"
   fit-margin-top="0"
   fit-margin-left="0"
   fit-margin-right="0"
   fit-margin-bottom="0"
   inkscape:zoom="12.043868"
   inkscape:cx="21.956977"
   inkscape:cy="5.8961371"
   inkscape:window-x="-8"
   inkscape:window-y="-8"
   inkscape:window-maximized="1"
   inkscape:current-layer="g294" />
<style
   type="text/css"
   id="style254">
	.st0{display:none;}
	.st1{fill:none;stroke:#000000;stroke-width:10;stroke-miterlimit:10;}
	.st2{fill:none;stroke:#000000;stroke-width:8;stroke-miterlimit:10;}
	.st3{fill:none;stroke:#000000;stroke-width:12;stroke-miterlimit:10;}
	.st4{fill:#FFD100;stroke:#000000;stroke-width:9;stroke-miterlimit:10;}
	.st5{fill:none;stroke:#000000;stroke-width:9;stroke-miterlimit:10;}
	.st6{stroke:#000000;stroke-width:9;stroke-miterlimit:10;}
	.st7{fill:#FFFFFF;stroke:#000000;stroke-width:9;stroke-miterlimit:10;}
	.st8{fill:none;stroke:#000000;stroke-width:17;stroke-miterlimit:10;}
	.st9{fill:none;stroke:#000000;stroke-width:5;stroke-miterlimit:10;}
	.st10{fill:none;}
	.st11{fill:#FFD100;}
	.st12{fill:none;stroke:#000000;stroke-width:22;stroke-miterlimit:10;}
	.st13{font-family:'Poppins-Bold';}
	.st14{font-size:122px;}
</style>
<g
   id="Layer_1"
   class="st0"
   style="display:none"
   transform="translate(-342.29092,-263.79767)">
</g>
<g
   id="Layer_3"
   transform="translate(-342.29092,-263.79767)">
</g>
<g
   id="Layer_2"
   transform="translate(-342.29092,-263.79767)">
	<g
   id="g294"
   transform="matrix(0.10309362,0,0,0.10309362,322.24045,250.05527)">
		<path
   class="st4"
   d="m 469.98,349.77 c -16.35,8.38 -50.01,34.25 -91.74,47.49 C 319.2,416 270.26,396.17 255.75,389.6 215.7,372 190.57,328.36 201.6,286.01 c 8.28,-31.81 43.18,-53.56 87.6,-37.54 7.65,4.29 15.3,8.57 22.95,12.86 52.61,29.48 105.22,58.96 157.83,88.44 z"
   id="path258"
   inkscape:connector-curvature="0"
   style="fill:#ffd100;stroke:#000000;stroke-width:9;stroke-miterlimit:10" />
		<polygon
   class="st6"
   points="468.65,349.15 502.77,367.88 453.89,363.2 "
   id="polygon260"
   style="stroke:#000000;stroke-width:9;stroke-miterlimit:10" />
		<path
   class="st5"
   d="m 296.67,222.91 c -7.26,-3.17 -16.89,-5.57 -27.35,-2.33 -20.17,6.25 -29.6,29.14 -32.7,26.67 -3.18,-2.54 2.3,-30.11 19.44,-43.64 10.64,-8.4 21.78,-8.24 27.08,-7.67"
   id="path262"
   inkscape:connector-curvature="0"
   style="fill:none;stroke:#000000;stroke-width:9;stroke-miterlimit:10" />
		<circle
   class="st5"
   cx="228.95"
   cy="285.42001"
   r="3.96"
   id="circle264"
   style="fill:none;stroke:#000000;stroke-width:9;stroke-miterlimit:10" />
		<path
   class="st1"
   d="m 306.22,258.03 c 16.02,27.35 15.86,61.1 -0.51,86.96 -21.14,33.39 -58.66,36.79 -62.9,37.11"
   id="path266"
   inkscape:connector-curvature="0"
   style="fill:none;stroke:#000000;stroke-width:10;stroke-miterlimit:10" />
		<path
   class="st1"
   d="m 314.19,262.76 c 16.02,27.05 15.86,60.42 -0.51,85.99 -21.14,33.01 -58.66,36.38 -62.9,36.69"
   id="path268"
   inkscape:connector-curvature="0"
   style="fill:none;stroke:#000000;stroke-width:10;stroke-miterlimit:10" />
		<path
   class="st3"
   d="m 365.94,295.46 c 1.09,1.96 15.13,25.68 0,63.82 -13.78,34.75 -48.25,43.17 -50.22,43.27"
   id="path270"
   inkscape:connector-curvature="0"
   style="fill:none;stroke:#000000;stroke-width:12;stroke-miterlimit:10" />
		<path
   class="st4"
   d="m 407.93,315 c 2.72,6.13 7.64,22.86 5.15,36.27 -3.92,21.13 -18.17,37.96 -22.66,41.7"
   id="path272"
   inkscape:connector-curvature="0"
   style="fill:#ffd100;stroke:#000000;stroke-width:9;stroke-miterlimit:10" />
		<path
   class="st5"
   d="m 415.1,319.02 c 4.34,9.06 7.38,17.12 5.55,31.8 -2.36,18.91 -12.84,29.58 -15.75,34.62"
   id="path274"
   inkscape:connector-curvature="0"
   style="fill:none;stroke:#000000;stroke-width:9;stroke-miterlimit:10" />
		<path
   class="st1"
   d="m 326.23,271.3 c 16.02,27.05 10.81,55.36 -5.56,80.92 -21.14,33.01 -55.68,36.65 -59.92,36.96"
   id="path276"
   inkscape:connector-curvature="0"
   style="fill:none;stroke:#000000;stroke-width:10;stroke-miterlimit:10" />
		<path
   class="st3"
   d="m 374.01,296 c 1.09,1.96 15.96,19.27 3.98,60.56 -10.24,35.31 -43.44,45.16 -46.24,46.31"
   id="path278"
   inkscape:connector-curvature="0"
   style="fill:none;stroke:#000000;stroke-width:12;stroke-miterlimit:10" />
		<path
   class="st5"
   d="m 422.79,324.1 c 4.34,9.06 6.11,13.4 4.82,28.13 -1.61,18.32 -9.86,27.6 -17.2,30.93"
   id="path280"
   inkscape:connector-curvature="0"
   style="fill:none;stroke:#000000;stroke-width:9;stroke-miterlimit:10" />
		<path
   class="st2"
   d="m 351.21,282.88 c 4.74,3.36 5.85,7.36 7.81,10.52 0,0 0.36,0.58 0.67,1.18 1.02,1.96 14.12,33.23 -0.87,65.01 -15.8,33.5 -50.86,42.21 -55.49,43.28"
   id="path282"
   inkscape:connector-curvature="0"
   style="fill:none;stroke:#000000;stroke-width:8;stroke-miterlimit:10" />
		<path
   class="st7"
   d="m 337.28,269.01 c -21.11,-11.13 -22.72,-65.35 -3.95,-99.3 1.96,-3.55 18.7,-33.82 39.79,-31.81 22.29,2.12 38.38,39.28 34.25,69.58 -5.6,41.05 -48.76,72.78 -70.09,61.53 z"
   id="path284"
   inkscape:connector-curvature="0"
   style="fill:#ffffff;stroke:#000000;stroke-width:9;stroke-miterlimit:10" />
		<path
   class="st7"
   d="m 342.06,277.09 c -7.05,-23.12 32.99,-66.91 72.61,-80.88 4.14,-1.46 39.47,-13.91 53.44,2 14.77,16.83 -1.66,57.03 -27.74,78.08 -35.33,28.53 -91.19,24.16 -98.31,0.8 z"
   id="path286"
   inkscape:connector-curvature="0"
   style="fill:#ffffff;stroke:#000000;stroke-width:9;stroke-miterlimit:10" />
		<line
   class="st5"
   x1="294.09"
   y1="401.38"
   x2="305.26999"
   y2="419.97"
   id="line288"
   style="fill:none;stroke:#000000;stroke-width:9;stroke-miterlimit:10" />
		<line
   class="st5"
   x1="348.95001"
   y1="405.12"
   x2="368.67001"
   y2="420.76999"
   id="line290"
   style="fill:none;stroke:#000000;stroke-width:9;stroke-miterlimit:10" />
		<line
   class="st5"
   x1="243.44"
   y1="383.35999"
   x2="252.52"
   y2="411.47"
   id="line292"
   style="fill:none;stroke:#000000;stroke-width:9;stroke-miterlimit:10" />
	</g>
	<rect
   y="519.29999"
   class="st10"
   width="740.16998"
   height="148.59"
   id="rect296"
   x="0"
   style="fill:none" />
	
</g>
</svg>