<svg xmlns="http://www.w3.org/2000/svg" xml:space="preserve" id="svg301" width="33.978" height="30" x="0" y="0" version="1.1"><style id="style254" type="text/css">.st1{stroke:#000;stroke-width:10;stroke-miterlimit:10}.st1,.st2,.st3{fill:none}.st2,.st3,.st4{stroke:#000;stroke-miterlimit:10}.st2{stroke-width:8}.st3{stroke-width:12}.st4{fill:#ffd100;stroke-width:9}.st5{fill:none}.st5,.st6,.st7{stroke:#000;stroke-width:9;stroke-miterlimit:10}.st7{fill:#fff}.st10{fill:none}</style><g id="Layer_2" transform="translate(-342.29 -263.798)"><g id="g294" transform="translate(322.24 250.055)scale(.1031)"><path id="path258" d="M469.98 349.77c-16.35 8.38-50.01 34.25-91.74 47.49-59.04 18.74-107.98-1.09-122.49-7.66-40.05-17.6-65.18-61.24-54.15-103.59 8.28-31.81 43.18-53.56 87.6-37.54 7.65 4.29 15.3 8.57 22.95 12.86l157.83 88.44z" class="st4" style="fill:#ffd100;stroke:#000;stroke-width:9;stroke-miterlimit:10"/><path id="polygon260" d="m468.65 349.15 34.12 18.73-48.88-4.68z" class="st6" style="stroke:#000;stroke-width:9;stroke-miterlimit:10"/><path id="path262" d="M296.67 222.91c-7.26-3.17-16.89-5.57-27.35-2.33-20.17 6.25-29.6 29.14-32.7 26.67-3.18-2.54 2.3-30.11 19.44-43.64 10.64-8.4 21.78-8.24 27.08-7.67" class="st5" style="fill:none;stroke:#000;stroke-width:9;stroke-miterlimit:10"/><circle id="circle264" cx="228.95" cy="285.42" r="3.96" class="st5" style="fill:none;stroke:#000;stroke-width:9;stroke-miterlimit:10"/><path id="path266" d="M306.22 258.03c16.02 27.35 15.86 61.1-.51 86.96-21.14 33.39-58.66 36.79-62.9 37.11" class="st1" style="fill:none;stroke:#000;stroke-width:10;stroke-miterlimit:10"/><path id="path268" d="M314.19 262.76c16.02 27.05 15.86 60.42-.51 85.99-21.14 33.01-58.66 36.38-62.9 36.69" class="st1" style="fill:none;stroke:#000;stroke-width:10;stroke-miterlimit:10"/><path id="path270" d="M365.94 295.46c1.09 1.96 15.13 25.68 0 63.82-13.78 34.75-48.25 43.17-50.22 43.27" class="st3" style="fill:none;stroke:#000;stroke-width:12;stroke-miterlimit:10"/><path id="path272" d="M407.93 315c2.72 6.13 7.64 22.86 5.15 36.27-3.92 21.13-18.17 37.96-22.66 41.7" class="st4" style="fill:#ffd100;stroke:#000;stroke-width:9;stroke-miterlimit:10"/><path id="path274" d="M415.1 319.02c4.34 9.06 7.38 17.12 5.55 31.8-2.36 18.91-12.84 29.58-15.75 34.62" class="st5" style="fill:none;stroke:#000;stroke-width:9;stroke-miterlimit:10"/><path id="path276" d="M326.23 271.3c16.02 27.05 10.81 55.36-5.56 80.92-21.14 33.01-55.68 36.65-59.92 36.96" class="st1" style="fill:none;stroke:#000;stroke-width:10;stroke-miterlimit:10"/><path id="path278" d="M374.01 296c1.09 1.96 15.96 19.27 3.98 60.56-10.24 35.31-43.44 45.16-46.24 46.31" class="st3" style="fill:none;stroke:#000;stroke-width:12;stroke-miterlimit:10"/><path id="path280" d="M422.79 324.1c4.34 9.06 6.11 13.4 4.82 28.13-1.61 18.32-9.86 27.6-17.2 30.93" class="st5" style="fill:none;stroke:#000;stroke-width:9;stroke-miterlimit:10"/><path id="path282" d="M351.21 282.88c4.74 3.36 5.85 7.36 7.81 10.52 0 0 .36.58.67 1.18 1.02 1.96 14.12 33.23-.87 65.01-15.8 33.5-50.86 42.21-55.49 43.28" class="st2" style="fill:none;stroke:#000;stroke-width:8;stroke-miterlimit:10"/><path id="path284" d="M337.28 269.01c-21.11-11.13-22.72-65.35-3.95-99.3 1.96-3.55 18.7-33.82 39.79-31.81 22.29 2.12 38.38 39.28 34.25 69.58-5.6 41.05-48.76 72.78-70.09 61.53z" class="st7" style="fill:#fff;stroke:#000;stroke-width:9;stroke-miterlimit:10"/><path id="path286" d="M342.06 277.09c-7.05-23.12 32.99-66.91 72.61-80.88 4.14-1.46 39.47-13.91 53.44 2 14.77 16.83-1.66 57.03-27.74 78.08-35.33 28.53-91.19 24.16-98.31.8z" class="st7" style="fill:#fff;stroke:#000;stroke-width:9;stroke-miterlimit:10"/><path id="line288" d="m294.09 401.38 11.18 18.59" class="st5" style="fill:none;stroke:#000;stroke-width:9;stroke-miterlimit:10"/><path id="line290" d="m348.95 405.12 19.72 15.65" class="st5" style="fill:none;stroke:#000;stroke-width:9;stroke-miterlimit:10"/><path id="line292" d="m243.44 383.36 9.08 28.11" class="st5" style="fill:none;stroke:#000;stroke-width:9;stroke-miterlimit:10"/></g><path id="rect296" d="M0 519.3h740.17v148.59H0z" class="st10" style="fill:none"/></g></svg>